<mxfile host="app.diagrams.net" modified="2020-07-24T18:40:14.583Z" agent="5.0 (Macintosh; Intel Mac OS X 10_14_6) AppleWebKit/537.36 (KHTML, like Gecko) Chrome/84.0.4147.89 Safari/537.36" etag="eGh71yk7z8gGT5r4xQ2f" version="13.4.9" type="github">
  <diagram id="mqUUIVUrgcyhS-0pyW_c" name="Page-1">
    <mxGraphModel dx="928" dy="565" grid="1" gridSize="10" guides="1" tooltips="1" connect="1" arrows="1" fold="1" page="1" pageScale="1" pageWidth="827" pageHeight="1169" math="0" shadow="0">
      <root>
        <mxCell id="0" />
        <mxCell id="1" parent="0" />
        <mxCell id="FPIck0brI8026hTAf2uE-33" style="edgeStyle=orthogonalEdgeStyle;rounded=0;orthogonalLoop=1;jettySize=auto;html=1;exitX=0.5;exitY=1;exitDx=0;exitDy=0;entryX=0.75;entryY=0;entryDx=0;entryDy=0;" edge="1" parent="1" source="FPIck0brI8026hTAf2uE-1" target="FPIck0brI8026hTAf2uE-16">
          <mxGeometry relative="1" as="geometry" />
        </mxCell>
        <mxCell id="FPIck0brI8026hTAf2uE-1" value="function fibonacci(n){" style="rounded=0;whiteSpace=wrap;html=1;" vertex="1" parent="1">
          <mxGeometry x="10" y="10" width="170" height="60" as="geometry" />
        </mxCell>
        <mxCell id="FPIck0brI8026hTAf2uE-37" style="edgeStyle=orthogonalEdgeStyle;rounded=0;orthogonalLoop=1;jettySize=auto;html=1;exitX=0.5;exitY=1;exitDx=0;exitDy=0;entryX=0.115;entryY=-0.001;entryDx=0;entryDy=0;entryPerimeter=0;" edge="1" parent="1" source="FPIck0brI8026hTAf2uE-11" target="FPIck0brI8026hTAf2uE-27">
          <mxGeometry relative="1" as="geometry" />
        </mxCell>
        <mxCell id="FPIck0brI8026hTAf2uE-11" value="LOOP" style="rounded=0;whiteSpace=wrap;html=1;" vertex="1" parent="1">
          <mxGeometry x="130" y="290" width="120" height="60" as="geometry" />
        </mxCell>
        <mxCell id="FPIck0brI8026hTAf2uE-13" value="only accept input of n &amp;gt; 0?" style="ellipse;whiteSpace=wrap;html=1;" vertex="1" parent="1">
          <mxGeometry x="190" y="10" width="100" height="70" as="geometry" />
        </mxCell>
        <mxCell id="FPIck0brI8026hTAf2uE-35" style="edgeStyle=orthogonalEdgeStyle;rounded=0;orthogonalLoop=1;jettySize=auto;html=1;exitX=0.5;exitY=1;exitDx=0;exitDy=0;entryX=0.5;entryY=0;entryDx=0;entryDy=0;" edge="1" parent="1" source="FPIck0brI8026hTAf2uE-16" target="FPIck0brI8026hTAf2uE-11">
          <mxGeometry relative="1" as="geometry">
            <mxPoint x="146.6400000000001" y="172.44000000000005" as="targetPoint" />
          </mxGeometry>
        </mxCell>
        <mxCell id="FPIck0brI8026hTAf2uE-16" value="Create &lt;br&gt;output = [];&lt;br&gt;var a = 0;&lt;br&gt;var b = 1;" style="rounded=0;whiteSpace=wrap;html=1;" vertex="1" parent="1">
          <mxGeometry x="10" y="90" width="120" height="60" as="geometry" />
        </mxCell>
        <mxCell id="FPIck0brI8026hTAf2uE-27" value="// Push the values of variables a and b into the array. The push the sum of the two values in the into the array, while count &amp;lt; n.&lt;br&gt;&lt;br&gt;for ( var count = 1; count &amp;lt;= n; count++) {&lt;br&gt;&lt;br&gt;var temp = a;&lt;br&gt;a = a + b;&lt;br&gt;b = temp;&lt;br&gt;&lt;br&gt;output.push(b);&lt;br&gt;}" style="rounded=0;whiteSpace=wrap;html=1;align=left;" vertex="1" parent="1">
          <mxGeometry x="130" y="370" width="580" height="170" as="geometry" />
        </mxCell>
        <mxCell id="FPIck0brI8026hTAf2uE-36" value="console.log(output);" style="rounded=0;whiteSpace=wrap;html=1;" vertex="1" parent="1">
          <mxGeometry x="130" y="550" width="510" height="60" as="geometry" />
        </mxCell>
      </root>
    </mxGraphModel>
  </diagram>
</mxfile>
